<svg width="12" height="8" viewBox="0 0 12 8" fill="none" xmlns="http://www.w3.org/2000/svg">
<path d="M11.6633 0.372418C11.45 0.133886 11.1615 0 10.8607 0C10.56 0 10.2715 0.133886 10.0582 0.372418L5.97154 4.90609L1.94179 0.372418C1.72851 0.133886 1.43999 0 1.13926 0C0.838521 0 0.550005 0.133886 0.336721 0.372418C0.230026 0.491475 0.145339 0.633122 0.0875465 0.789187C0.0297541 0.945252 0 1.11265 0 1.28171C0 1.45078 0.0297541 1.61818 0.0875465 1.77424C0.145339 1.93031 0.230026 2.07195 0.336721 2.19101L5.16331 7.62117C5.26914 7.74121 5.39504 7.83649 5.53376 7.90151C5.67248 7.96652 5.82127 8 5.97154 8C6.12182 8 6.2706 7.96652 6.40932 7.90151C6.54804 7.83649 6.67394 7.74121 6.77977 7.62117L11.6633 2.19101C11.77 2.07195 11.8547 1.93031 11.9125 1.77424C11.9702 1.61818 12 1.45078 12 1.28171C12 1.11265 11.9702 0.945252 11.9125 0.789187C11.8547 0.633122 11.77 0.491475 11.6633 0.372418Z" fill="black"/>
</svg>
