<svg width="9" height="14" viewBox="0 0 9 14" fill="none" xmlns="http://www.w3.org/2000/svg">
<path d="M7.87079 5.9458L2.21079 0.295798C2.11783 0.20207 2.00723 0.127676 1.88537 0.0769072C1.76351 0.0261385 1.6328 0 1.50079 0C1.36878 0 1.23807 0.0261385 1.11622 0.0769072C0.994356 0.127676 0.883755 0.20207 0.790792 0.295798C0.604542 0.483161 0.5 0.736612 0.5 1.0008C0.5 1.26498 0.604542 1.51844 0.790792 1.7058L5.74079 6.7058L0.790792 11.6558C0.604542 11.8432 0.5 12.0966 0.5 12.3608C0.5 12.625 0.604542 12.8784 0.790792 13.0658C0.883407 13.1603 0.993852 13.2355 1.11573 13.287C1.2376 13.3384 1.36849 13.3652 1.50079 13.3658C1.6331 13.3652 1.76398 13.3384 1.88586 13.287C2.00773 13.2355 2.11818 13.1603 2.21079 13.0658L7.87079 7.4158C7.9723 7.32216 8.05331 7.2085 8.10871 7.08201C8.16412 6.95551 8.19273 6.8189 8.19273 6.6808C8.19273 6.5427 8.16412 6.40609 8.10871 6.27959C8.05331 6.15309 7.9723 6.03944 7.87079 5.9458Z" fill="black"/>
</svg>
