<svg width="20" height="20" viewBox="0 0 20 20" fill="none" xmlns="http://www.w3.org/2000/svg">
<path d="M8.28143 15.5629C9.86271 15.5629 11.3209 15.0516 12.5139 14.1994L17.0021 18.6875C17.2104 18.8958 17.485 19 17.7785 19C18.394 19 18.8296 18.5266 18.8296 17.9206C18.8296 17.6365 18.7349 17.3619 18.5266 17.1631L14.0668 12.6938C15.0042 11.4629 15.5629 9.93845 15.5629 8.28143C15.5629 4.27617 12.2867 1 8.28143 1C4.28564 1 1 4.2667 1 8.28143C1 12.2867 4.27617 15.5629 8.28143 15.5629ZM8.28143 13.9911C5.15676 13.9911 2.5718 11.4061 2.5718 8.28143C2.5718 5.15676 5.15676 2.5718 8.28143 2.5718C11.4061 2.5718 13.9911 5.15676 13.9911 8.28143C13.9911 11.4061 11.4061 13.9911 8.28143 13.9911Z" fill="black" fill-opacity="0.86" stroke="black" stroke-width="0.5"/>
</svg>
