<svg width="24" height="24" viewBox="0 0 24 24" fill="none" xmlns="http://www.w3.org/2000/svg">
<path d="M20 0H4C2.93913 0 1.92172 0.421427 1.17157 1.17157C0.421427 1.92172 0 2.93913 0 4L0 20C0 21.0609 0.421427 22.0783 1.17157 22.8284C1.92172 23.5786 2.93913 24 4 24H20C21.0609 24 22.0783 23.5786 22.8284 22.8284C23.5786 22.0783 24 21.0609 24 20V4C24 2.93913 23.5786 1.92172 22.8284 1.17157C22.0783 0.421427 21.0609 0 20 0ZM15.71 17.54C15.8037 17.633 15.8781 17.7436 15.9289 17.8654C15.9797 17.9873 16.0058 18.118 16.0058 18.25C16.0058 18.382 15.9797 18.5127 15.9289 18.6346C15.8781 18.7564 15.8037 18.867 15.71 18.96C15.617 19.0537 15.5064 19.1281 15.3846 19.1789C15.2627 19.2297 15.132 19.2558 15 19.2558C14.868 19.2558 14.7373 19.2297 14.6154 19.1789C14.4936 19.1281 14.383 19.0537 14.29 18.96L7.93 12.59C7.82961 12.4927 7.75415 12.3726 7.71 12.24C7.61801 12.0054 7.61801 11.7446 7.71 11.51C7.75815 11.3793 7.83309 11.2601 7.93 11.16L14.29 4.79C14.3832 4.69676 14.4939 4.6228 14.6158 4.57234C14.7376 4.52188 14.8681 4.49591 15 4.49591C15.1319 4.49591 15.2624 4.52188 15.3842 4.57234C15.5061 4.6228 15.6168 4.69676 15.71 4.79C15.8032 4.88324 15.8772 4.99393 15.9277 5.11575C15.9781 5.23757 16.0041 5.36814 16.0041 5.5C16.0041 5.63186 15.9781 5.76243 15.9277 5.88425C15.8772 6.00607 15.8032 6.11676 15.71 6.21L10 11.88L15.71 17.54Z" fill="black"/>
</svg>
