<svg width="9" height="15" viewBox="0 0 9 15" fill="none" xmlns="http://www.w3.org/2000/svg">
<path d="M7.75096 6.99309L2.02719 1.06059C1.93318 0.962173 1.82133 0.88406 1.6981 0.830753C1.57487 0.777445 1.44269 0.75 1.30919 0.75C1.17569 0.75 1.04351 0.777445 0.920278 0.830753C0.797046 0.88406 0.685199 0.962173 0.591188 1.06059C0.402839 1.25732 0.297119 1.52344 0.297119 1.80084C0.297119 2.07823 0.402839 2.34436 0.591188 2.54109L5.59696 7.79109L0.591188 12.9886C0.402839 13.1853 0.297119 13.4514 0.297119 13.7288C0.297119 14.0062 0.402839 14.2724 0.591188 14.4691C0.684846 14.5683 0.796536 14.6472 0.919784 14.7013C1.04303 14.7554 1.17539 14.7835 1.30919 14.7841C1.44299 14.7835 1.57534 14.7554 1.69859 14.7013C1.82184 14.6472 1.93353 14.5683 2.02719 14.4691L7.75096 8.53659C7.85361 8.43826 7.93553 8.31893 7.99156 8.18611C8.0476 8.05328 8.07652 7.90985 8.07652 7.76484C8.07652 7.61983 8.0476 7.4764 7.99156 7.34357C7.93553 7.21075 7.85361 7.09141 7.75096 6.99309Z" fill="black"/>
</svg>
