<svg width="9" height="16" viewBox="0 0 9 16" fill="none" xmlns="http://www.w3.org/2000/svg">
<path d="M7.75096 7.04038L2.02719 0.825378C1.93318 0.722277 1.82133 0.640443 1.6981 0.584598C1.57487 0.528752 1.44269 0.5 1.30919 0.5C1.17569 0.5 1.04351 0.528752 0.920278 0.584598C0.797046 0.640443 0.685199 0.722277 0.591188 0.825378C0.402839 1.03148 0.297119 1.31027 0.297119 1.60088C0.297119 1.89148 0.402839 2.17028 0.591188 2.37638L5.59696 7.87638L0.591188 13.3214C0.402839 13.5275 0.297119 13.8063 0.297119 14.0969C0.297119 14.3875 0.402839 14.6663 0.591188 14.8724C0.684846 14.9763 0.796536 15.059 0.919784 15.1156C1.04303 15.1723 1.17539 15.2018 1.30919 15.2024C1.44299 15.2018 1.57534 15.1723 1.69859 15.1156C1.82184 15.059 1.93353 14.9763 2.02719 14.8724L7.75096 8.65738C7.85361 8.55437 7.93553 8.42936 7.99156 8.29021C8.0476 8.15106 8.07652 8.00079 8.07652 7.84888C8.07652 7.69697 8.0476 7.5467 7.99156 7.40755C7.93553 7.2684 7.85361 7.14338 7.75096 7.04038Z" fill="black"/>
</svg>
