<svg width="9" height="14" viewBox="0 0 9 14" fill="none" xmlns="http://www.w3.org/2000/svg">
<path d="M7.75096 5.9458L2.02719 0.295798C1.93318 0.20207 1.82133 0.127676 1.6981 0.0769072C1.57487 0.0261385 1.44269 0 1.30919 0C1.17569 0 1.04351 0.0261385 0.920278 0.0769072C0.797046 0.127676 0.685199 0.20207 0.591188 0.295798C0.402839 0.483161 0.297119 0.736612 0.297119 1.0008C0.297119 1.26498 0.402839 1.51844 0.591188 1.7058L5.59696 6.7058L0.591188 11.6558C0.402839 11.8432 0.297119 12.0966 0.297119 12.3608C0.297119 12.625 0.402839 12.8784 0.591188 13.0658C0.684846 13.1603 0.796536 13.2355 0.919784 13.287C1.04303 13.3384 1.17539 13.3652 1.30919 13.3658C1.44299 13.3652 1.57534 13.3384 1.69859 13.287C1.82184 13.2355 1.93353 13.1603 2.02719 13.0658L7.75096 7.4158C7.85361 7.32216 7.93553 7.2085 7.99156 7.08201C8.0476 6.95551 8.07652 6.8189 8.07652 6.6808C8.07652 6.5427 8.0476 6.40609 7.99156 6.27959C7.93553 6.15309 7.85361 6.03944 7.75096 5.9458Z" fill="black"/>
</svg>
